<svg xmlns="http://www.w3.org/2000/svg" width="53.031" height="45.867" viewBox="0 0 15.997 13.869">
  <defs/>
  <g stroke="#000" stroke-linejoin="round" stroke-width="20" class="b">
    <g class="b">
      <g class="b">
        <path d="M256.7 257.3c-135.3 0-245.3 110.1-245.3 245.3 0 5.9 4.8 10.7 10.7 10.7 5.9 0 10.7-4.8 10.7-10.7 0-123.5 100.5-224 224-224s224 100.5 224 224c0 5.9 4.8 10.7 10.7 10.7 5.9 0 10.7-4.8 10.7-10.7-.2-135.2-110.3-245.3-245.5-245.3z" class="b" transform="matrix(.01137 0 0 .01156 5.191 .287)"/>
      </g>
    </g>
    <g class="b">
      <g class="b">
        <path d="M256.7 0C192 0 139.4 52.6 139.4 117.3c0 64.7 52.7 117.3 117.3 117.3 64.7 0 117.3-52.6 117.3-117.3C374 52.6 321.3 0 256.7 0zm0 213.3c-52.9 0-96-43.1-96-96s43.1-96 96-96 96 43.1 96 96-43.1 96-96 96z" class="b" transform="matrix(.01137 0 0 .01156 5.191 .287)"/>
      </g>
    </g>
  </g>
  <g stroke-width=".9" class="c">
    <g class="c">
      <g class="c">
        <path d="M12.31 7.021a4.936 4.936 0 00-.266-.01c-.03 0-3.092-.192-4.316 3.24-1.07 3-3.552 2.868-3.684 2.86-.048 0-.1 0-.147-.003-1.75-.065-3.12-1.286-3.12-2.778 0-1.535 1.467-2.78 3.267-2.78 1.118 0 2.147.477 2.752 1.278l.532-.292C6.604 7.58 5.378 7.01 4.044 7.01c-2.15 0-3.9 1.488-3.9 3.32 0 1.78 1.638 3.236 3.724 3.315.058.003.115.003.147.003.004 0 .042.003.106.003.55 0 3.114-.17 4.213-3.242 1.07-3 3.553-2.868 3.684-2.86.083 0 .166.003.247.01 1.694.105 3.02 1.324 3.02 2.771 0 1.535-1.467 2.78-3.267 2.78-1.118 0-2.147-.476-2.752-1.277l-.532.29c.72.955 1.948 1.528 3.28 1.528 2.15 0 3.9-1.49 3.9-3.318 0-1.728-1.583-3.18-3.608-3.31z" class="c"/>
      </g>
    </g>
  </g>
</svg>